# xmcd
#
# Track frame offsets: 
#        150
#        18440
#        39342
#        55292
#        76122
#        95151
#        120651
#        147099
#
# Disc length: 2243 seconds
#
# Revision: 0
# Processed by: cddbd v1.5.2PL0 Copyright (c) Steve Scherf et al.
# Submitted via: ExactAudioCopyFreeDBPlugin 1.0
#
DISCID=6008c108
DTITLE=Hoai Lam - Co be ngay xua
DYEAR=2015
DGENRE=Soundtrack
TTITLE0=Gap nhau lam ngo
TTITLE1=Thuyen hoa
TTITLE2=Co be ngay xua
TTITLE3=Khong gio roi
TTITLE4=Noi lai tinh xua
TTITLE5=Chuyen do khong em
TTITLE6=Nguoi tinh mo cau
TTITLE7=Pho buon
EXTD=
EXTT0=
EXTT1=
EXTT2=
EXTT3=
EXTT4=
EXTT5=
EXTT6=
EXTT7=
PLAYORDER=
